HIERARCHY
ROOT Hips
{
	OFFSET 0.00 0.00 0.00
	CHANNELS 6 Xposition Yposition Zposition Xrotation Yrotation Zrotation
	JOINT RightUpLeg
	{
		OFFSET -3.69398 0.00000 0.00000
		CHANNELS 3 Xrotation Yrotation Zrotation
		JOINT RightLeg
		{
			OFFSET 0.00000 -15.79567 0.00000
			CHANNELS 3 Xrotation Yrotation Zrotation
			JOINT RightFoot
			{
				OFFSET 0.00000 -14.76699 0.00000
				CHANNELS 3 Xrotation Yrotation Zrotation
				JOINT RightToeBase
				{
					OFFSET 0.00000 -1.28446 4.79369
					CHANNELS 3 Xrotation Yrotation Zrotation
					End Site
					{
						OFFSET 0.00000 0.00000 2.95275
					}
				}
			}
		}
	}
	JOINT LeftUpLeg
	{
		OFFSET 3.69398 0.00000 0.00000
		CHANNELS 3 Xrotation Yrotation Zrotation
		JOINT LeftLeg
		{
			OFFSET 0.00000 -15.79567 0.00000
			CHANNELS 3 Xrotation Yrotation Zrotation
			JOINT LeftFoot
			{
				OFFSET 0.00000 -14.76699 0.00000
				CHANNELS 3 Xrotation Yrotation Zrotation
				JOINT LeftToeBase
				{
					OFFSET 0.00000 -1.28446 4.79369
					CHANNELS 3 Xrotation Yrotation Zrotation
					End Site
					{
						OFFSET 0.00000 0.00000 2.95275
					}
				}
			}
		}
	}
	JOINT Spine
	{
		OFFSET 0.00000 2.39296 0.00000
		CHANNELS 3 Xrotation Yrotation Zrotation
		JOINT RightShoulder
		{
			OFFSET 0.00000 13.20741 0.00000
			CHANNELS 3 Xrotation Yrotation Zrotation
			JOINT RightArm
			{
				OFFSET -8.14047 0.00000 0.00000
				CHANNELS 3 Xrotation Yrotation Zrotation
				JOINT RightForeArm
				{
					OFFSET -10.64984 0.00000 0.00000
					CHANNELS 3 Yrotation Zrotation Xrotation
					JOINT RightHand
					{
						OFFSET -8.30462 0.00000 0.00000
						CHANNELS 3 Xrotation Yrotation Zrotation
						End Site
						{
							OFFSET -3.93700 0.00000 0.00000
						}
						JOINT RightHandThumb1
						{
							OFFSET 0.00000 0.00000 0.00000
							CHANNELS 3 Xrotation Zrotation Yrotation
							End Site
							{
								OFFSET 0.00000 0.00000 3.93700
							}
						}
					}
				}
			}
		}
		JOINT LeftShoulder
		{
			OFFSET 0.00000 13.20741 0.00000
			CHANNELS 3 Xrotation Yrotation Zrotation
			JOINT LeftArm
			{
				OFFSET 8.14047 0.00000 0.00000
				CHANNELS 3 Xrotation Yrotation Zrotation
				JOINT LeftForeArm
				{
					OFFSET 10.64984 0.00000 0.00000
					CHANNELS 3 Yrotation Zrotation Xrotation
					JOINT LeftHand
					{
						OFFSET 8.30462 0.00000 0.00000
						CHANNELS 3 Xrotation Yrotation Zrotation
						End Site
						{
							OFFSET 3.93700 0.00000 0.00000
						}
						JOINT LeftHandThumb1
						{
							OFFSET 0.00000 0.00000 0.00000
							CHANNELS 3 Xrotation Zrotation Yrotation
							End Site
							{
								OFFSET 0.00000 0.00000 3.93700
							}
						}
					}
				}
			}
		}
		JOINT Head
		{
			OFFSET 0.00000 19.25010 0.00000
			CHANNELS 3 Xrotation Yrotation Zrotation
			End Site
			{
				OFFSET 0.00000 4.52755 0.00000
			}
		}
	}
}
MOTION
Frames: 22
Frame Time: 0.008333
 -4.1632 17.9732 -12.5153 76.7526 16.4457 11.6987 -158.0579 23.7002 -46.2104 106.8188 0.0000 -0.0000 -28.8846 18.4895 38.4538 17.7931 0.0000 -0.0000 -95.1379 23.8549 38.0511 -6.6477 -0.0000 -0.0000 6.7667 -8.2750 -50.4959 9.6831 -0.0000 -0.0000 -30.5152 11.2205 13.8878 -27.9681 13.4710 -21.2142 -5.6296 14.8623 74.7229 -0.3623 -0.0000 -18.8301 26.5558 30.1884 -44.8259 32.8623 0.0000 -24.3270 -7.6190 8.4116 44.8315 -23.4117 -15.3362 -40.9341 -9.8358 0.0000 12.0399 -5.2731 17.3982 17.1537 33.1476 -0.0000 26.2537 -5.4017 -42.9817 23.4164
 -4.1795 17.8555 -12.5011 76.3404 16.5733 11.5436 -157.7993 24.1014 -46.6136 107.3652 0.0000 0.0000 -29.0617 18.6197 38.6144 17.7605 -0.0000 -0.0000 -95.1786 24.2615 38.1492 -6.9345 -0.0000 0.0000 6.8400 -8.9784 -50.9083 9.6474 0.0000 -0.0000 -30.1984 10.8585 13.7821 -27.8752 13.5815 -21.3594 -5.7443 13.9916 75.1104 -0.4260 -0.0000 -18.3583 26.8993 30.1858 -45.2557 32.8623 0.0000 -24.3270 -7.7035 8.3015 44.8196 -24.2728 -15.2386 -40.5132 -10.1508 0.0000 12.1465 -5.4581 17.6055 17.5319 33.1476 -0.0000 26.2537 -5.2073 -43.2272 23.7555
 -4.2091 17.7406 -12.4990 76.0180 16.5834 11.3495 -157.6195 24.3380 -46.8969 107.8962 0.0000 -0.0000 -29.2320 18.6934 38.6203 17.8225 -0.0000 -0.0000 -95.2819 24.4026 38.3970 -7.0788 0.0000 0.0000 6.9774 -9.4180 -51.2690 9.6944 -0.0000 -0.0000 -29.9273 10.6338 13.7133 -27.9077 13.7255 -21.3660 -5.4310 13.8590 75.3213 -0.2802 -0.0000 -18.5999 27.6179 29.8447 -46.4329 32.8623 0.0000 -24.3270 -7.8019 8.1211 44.8833 -25.1219 -15.0559 -40.1156 -10.4932 0.0000 12.2699 -5.4124 17.6866 17.3206 33.1476 -0.0000 26.2537 -4.9846 -43.4782 24.1447
 -4.2452 17.6265 -12.5000 75.7421 16.5223 11.1486 -157.4658 24.4970 -47.0870 108.4249 -0.0000 0.0000 -29.3954 18.7189 38.6727 17.8405 -0.0000 -0.0000 -95.3911 24.4339 38.7215 -7.2005 0.0000 -0.0000 7.1448 -9.7529 -51.5200 9.7636 0.0000 -0.0000 -29.6865 10.5120 13.6429 -27.8557 13.7639 -21.3505 -5.2935 13.4651 75.5103 -0.1310 -0.0000 -18.6355 28.3840 29.7356 -47.4498 32.8623 0.0000 -24.3270 -7.9927 7.8755 44.9970 -25.9464 -14.9443 -39.7768 -10.7239 0.0000 12.2591 -5.4988 17.8256 17.4571 33.1476 -0.0000 26.2537 -4.7194 -43.7155 24.5906
 -4.3022 17.5061 -12.4993 75.4827 16.3136 10.4126 -157.0008 24.2676 -47.7764 109.0396 0.0000 -0.0000 -29.7513 18.7247 38.7459 17.8987 0.0000 -0.0000 -95.3811 23.4249 39.1424 -7.0217 0.0000 -0.0000 7.1601 -9.7493 -51.5657 9.5027 0.0000 -0.0000 -29.5451 10.2889 14.1164 -27.7940 13.7563 -21.3368 -5.1662 13.0261 75.7050 0.0411 -0.0000 -18.7209 28.7837 29.9730 -47.7176 32.8623 0.0000 -24.3270 -8.1362 7.6587 45.0817 -26.7001 -14.9867 -39.4101 -10.9198 0.0000 12.1117 -5.6574 17.7704 17.9822 33.1476 -0.0000 26.2537 -4.4057 -43.9697 25.1126
 -4.3426 17.3991 -12.5018 75.2565 16.2244 10.0690 -156.7879 24.3315 -48.0587 109.5500 -0.0000 -0.0000 -29.9028 18.7062 38.8243 17.8954 0.0000 -0.0000 -95.3933 22.9472 39.4420 -6.9005 0.0000 0.0000 7.2099 -9.7304 -51.7458 9.4888 -0.0000 -0.0000 -29.3787 10.1618 14.1977 -27.7446 13.7866 -21.3203 -5.2233 11.9274 75.9564 0.1583 -0.0000 -18.1141 29.4634 29.7664 -48.6908 32.8623 0.0000 -24.3270 -8.2682 7.3632 45.2239 -27.4781 -14.8532 -39.1452 -11.1347 0.0000 12.2000 -5.8053 17.7285 18.4633 33.1476 -0.0000 26.2537 -4.0537 -44.2312 25.5465
 -4.3830 17.2967 -12.5067 75.1384 16.1149 9.6855 -156.6780 24.3414 -48.3197 110.0397 -0.0000 0.0000 -29.9919 18.7922 38.6173 17.6936 0.0000 -0.0000 -95.4970 22.3604 39.7776 -6.6979 0.0000 0.0000 7.2042 -9.5866 -52.1101 9.8506 -0.0000 0.0000 -29.2982 10.0616 14.2925 -27.7571 13.8380 -21.2740 -5.0828 11.1300 76.1643 0.4127 -0.0000 -17.7851 29.9581 29.5283 -49.4665 32.8623 0.0000 -24.3270 -8.4277 7.1647 45.4057 -28.2476 -14.8663 -38.9244 -11.3562 0.0000 12.1936 -5.9694 17.8068 18.8769 33.1476 -0.0000 26.2537 -3.6820 -44.4524 26.0538
 -4.4231 17.1980 -12.5097 75.0807 16.0114 9.3068 -156.6050 24.3681 -48.5460 110.5139 -0.0000 -0.0000 -30.1181 18.6746 38.8551 17.9951 0.0000 -0.0000 -95.6372 21.7726 40.1043 -6.4804 -0.0000 0.0000 7.1234 -9.5481 -52.1260 9.8876 0.0000 0.0000 -29.2994 10.0214 14.3724 -27.6769 13.8081 -21.2378 -4.9624 10.4181 76.3333 0.7511 -0.0000 -17.4860 30.7493 28.8640 -50.9433 32.8623 0.0000 -24.3270 -8.5753 6.8678 45.6526 -29.0049 -14.7470 -38.7919 -11.6043 0.0000 12.2845 -6.0933 17.8659 19.1857 33.1476 -0.0000 26.2537 -3.2609 -44.6838 26.6075
 -4.4625 17.1039 -12.5149 75.0777 15.9198 8.9749 -156.6258 24.4031 -48.6975 110.9640 0.0000 0.0000 -30.1628 18.6489 38.8913 18.0092 0.0000 0.0000 -95.8499 21.2820 40.4315 -6.2696 -0.0000 0.0000 7.0616 -9.5964 -52.0750 9.8501 0.0000 0.0000 -29.3161 9.9792 14.3916 -27.7063 13.8020 -21.1882 -4.7288 9.9537 76.5215 1.0950 -0.0000 -17.4001 31.3342 28.3586 -52.0397 32.8623 0.0000 -24.3270 -8.8094 6.5759 45.8982 -29.5565 -14.7855 -38.6339 -11.7783 0.0000 12.2762 -6.1819 17.7473 19.5622 33.1476 -0.0000 26.2537 -2.8458 -44.9080 27.1606
 -4.5013 17.0115 -12.5187 75.0909 15.7982 8.6482 -156.6508 24.4080 -48.8275 111.4006 -0.0000 -0.0000 -30.2594 18.5665 39.0043 18.4012 -0.0000 0.0000 -96.0797 20.8349 40.7727 -6.1051 -0.0000 -0.0000 7.0285 -9.6945 -51.7559 9.5259 0.0000 0.0000 -29.3462 9.9843 14.4100 -27.6970 13.7407 -21.1461 -4.5488 9.4601 76.7010 1.4431 -0.0000 -17.2040 31.6952 28.1491 -52.6201 32.8623 0.0000 -24.3270 -9.0164 6.2981 46.1937 -30.0639 -14.8184 -38.5123 -11.9916 0.0000 12.2678 -6.2384 17.6646 19.8112 33.1476 -0.0000 26.2537 -2.4153 -45.1481 27.7673
 -4.5260 16.9259 -12.5151 75.0451 15.8182 8.4066 -156.6312 24.5783 -49.0189 111.8018 0.0000 -0.0000 -30.3653 18.5471 39.0579 18.6401 -0.0000 0.0000 -96.2439 20.6141 40.9360 -6.0495 0.0000 -0.0000 7.0614 -9.7380 -52.0130 9.9918 -0.0000 0.0000 -29.3180 9.8443 14.3598 -27.6600 13.7127 -21.1121 -4.3754 9.0862 76.8664 1.8124 -0.0000 -17.2192 32.2781 27.6308 -53.7126 32.8623 0.0000 -24.3270 -9.1742 6.1436 46.4009 -30.5138 -14.9852 -38.3492 -12.1704 0.0000 12.3005 -6.2767 17.6319 19.9569 33.1476 -0.0000 26.2537 -2.0646 -45.3706 28.2228
 -4.5552 16.8425 -12.5144 75.0074 15.7779 8.1637 -156.6295 24.6506 -49.1722 112.1865 -0.0000 0.0000 -30.5062 18.4781 39.0824 18.6606 0.0000 -0.0000 -96.4507 20.4317 41.1639 -6.0370 0.0000 0.0000 7.1524 -9.9017 -52.0190 10.0002 0.0000 0.0000 -29.2734 9.7639 14.3180 -27.6751 13.6648 -21.0311 -4.1942 8.7990 77.0106 2.1061 -0.0000 -17.2333 33.0052 26.9880 -55.0596 32.8623 0.0000 -24.3270 -9.3804 5.9319 46.6175 -30.6843 -15.2921 -38.1002 -12.3126 -0.0000 12.1914 -6.3172 17.5658 20.1438 33.1476 -0.0000 26.2537 -1.7389 -45.5677 28.6855
 -4.5835 16.7651 -12.5149 74.9453 15.7220 7.9064 -156.5923 24.6633 -49.3437 112.5527 0.0000 0.0000 -30.5449 18.9505 38.0436 16.7438 -0.0000 0.0000 -96.6869 20.2896 41.4023 -6.0243 0.0000 0.0000 7.2295 -10.2044 -51.8436 9.7259 0.0000 0.0000 -29.1827 9.6916 14.3272 -27.6437 13.5735 -21.0029 -4.1083 8.3586 77.1773 2.5026 -0.0000 -17.1205 33.4851 26.3803 -56.1113 32.8623 0.0000 -24.3270 -9.5582 5.8242 46.8040 -30.9353 -15.6464 -37.8706 -12.4042 -0.0000 12.2631 -6.3113 17.5652 20.1269 33.1476 -0.0000 26.2537 -1.5082 -45.7748 29.0409
 -4.6040 16.6930 -12.5121 74.8753 15.7161 7.7226 -156.5645 24.7705 -49.5166 112.8811 -0.0000 0.0000 -30.6624 19.1265 37.6820 16.3845 0.0000 -0.0000 -96.9439 20.3416 41.5891 -6.0784 0.0000 0.0000 7.3273 -10.5556 -51.8244 9.6539 0.0000 -0.0000 -29.0907 9.6213 14.2776 -27.6183 13.5121 -20.9183 -3.9329 7.9876 77.2605 2.9711 -0.0000 -17.2224 33.9640 25.7777 -57.1532 32.8623 0.0000 -24.3270 -9.6622 5.6787 46.9561 -31.1504 -15.9073 -37.6125 -12.5098 0.0000 12.5485 -6.3698 17.5952 20.2688 33.1476 -0.0000 26.2537 -1.2549 -45.9677 29.3879
 -4.6234 16.6247 -12.5090 74.7738 15.7132 7.5190 -156.4928 24.8611 -49.7549 113.1863 0.0000 -0.0000 -30.7565 19.1184 37.7870 15.8711 -0.0000 0.0000 -97.1817 20.4045 41.7587 -6.1590 -0.0000 0.0000 7.4523 -10.9148 -51.8572 9.6155 0.0000 0.0000 -28.9509 9.5123 14.2652 -27.6628 13.4385 -20.8172 -3.7991 7.5632 77.3392 3.2948 -0.0000 -16.9135 34.5275 25.2360 -58.2134 32.8623 0.0000 -24.3270 -9.7845 5.6289 47.0549 -31.0735 -16.5129 -37.2639 -12.4749 0.0000 12.7128 -6.5147 17.5486 20.7437 33.1476 -0.0000 26.2537 -1.0927 -46.0914 29.6988
 -4.6411 16.5631 -12.5059 74.6456 15.6722 7.3348 -156.4063 24.8859 -49.9622 113.4620 -0.0000 0.0000 -30.7275 19.4744 37.2419 14.5534 0.0000 0.0000 -97.4562 20.5383 41.9771 -6.2430 0.0000 -0.0000 7.5891 -11.2492 -52.1883 10.0190 0.0000 -0.0000 -28.7873 9.4647 14.2916 -27.5920 13.3427 -20.7431 -3.7416 7.0696 77.3982 3.7200 -0.0000 -16.6579 35.0675 24.5463 -59.3825 32.8623 0.0000 -24.3270 -9.8136 5.5398 47.1791 -31.3357 -16.6511 -37.0392 -12.5603 0.0000 13.1338 -6.5559 17.5238 20.8907 33.1476 -0.0000 26.2537 -0.9571 -46.2462 29.9132
 -4.6553 16.5053 -12.5053 74.6358 15.7644 7.2129 -156.4747 25.0805 -50.1395 113.7266 0.0000 -0.0000 -30.8014 19.5437 37.1663 14.6451 0.0000 0.0000 -97.6746 20.6673 42.0233 -6.3544 -0.0000 0.0000 7.7768 -11.5148 -52.1735 9.9306 -0.0000 0.0000 -28.6998 9.2724 14.1650 -27.5435 13.2879 -20.6303 -3.7278 6.3611 77.4701 4.2024 -0.0000 -16.1227 35.4174 24.0265 -60.2062 32.8623 0.0000 -24.3270 -9.9010 5.5361 47.3355 -31.4336 -16.9258 -36.8063 -12.5276 0.0000 13.3374 -6.5649 17.4134 21.0345 33.1476 -0.0000 26.2537 -0.8074 -46.3086 30.1348
 -4.6707 16.4527 -12.5001 74.5191 15.7507 7.0679 -156.3747 25.1407 -50.3484 113.9605 -0.0000 -0.0000 -30.9441 19.3062 38.0383 16.3027 -0.0000 0.0000 -97.7803 20.7289 42.1482 -6.4905 -0.0000 0.0000 7.9366 -11.8016 -52.0966 9.6934 -0.0000 0.0000 -28.5180 9.1811 14.1599 -27.5191 13.2064 -20.4949 -3.6777 5.4978 77.4949 4.8061 -0.0000 -15.1856 35.6161 23.3951 -61.0007 32.8623 0.0000 -24.3270 -9.9764 5.4330 47.4775 -31.5466 -16.9436 -36.6361 -12.6424 0.0000 13.6411 -6.6738 17.3903 21.3799 33.1476 -0.0000 26.2537 -0.7159 -46.3296 30.3667
 -4.6862 16.4073 -12.4977 74.4571 15.7290 6.8520 -156.2974 25.1235 -50.6100 114.1685 0.0000 0.0000 -31.0372 19.2918 38.3231 16.7368 -0.0000 0.0000 -97.8321 20.5760 42.2375 -6.5608 0.0000 0.0000 8.0173 -11.8598 -52.0628 9.6383 0.0000 -0.0000 -28.3907 9.1178 14.2323 -27.5738 13.1150 -20.3746 -3.5711 4.5132 77.5269 5.4528 -0.0000 -14.3284 35.8786 22.7471 -61.8720 32.8623 0.0000 -24.3270 -10.0512 5.3552 47.5882 -31.6369 -17.0737 -36.4731 -12.6071 0.0000 13.9086 -6.7579 17.2668 21.7629 33.1476 -0.0000 26.2537 -0.6796 -46.4325 30.5213
 -4.6972 16.3651 -12.4896 74.4221 15.7642 6.5481 -156.1798 25.1228 -51.0298 114.3792 -0.0000 0.0000 -31.1372 19.3766 38.5102 17.6513 0.0000 0.0000 -97.8109 20.2318 42.2284 -6.5692 0.0000 0.0000 8.0549 -11.7823 -52.1049 9.5961 -0.0000 0.0000 -28.3044 8.8761 14.3805 -27.6122 13.0986 -20.2251 -3.4718 3.5273 77.5418 6.0857 -0.0000 -13.2649 36.0236 22.0768 -62.6672 32.8623 0.0000 -24.3270 -10.1007 5.3787 47.7440 -31.7857 -17.1159 -36.4129 -12.5288 0.0000 14.1535 -6.8860 17.2496 22.1589 33.1476 -0.0000 26.2537 -0.6158 -46.4016 30.6464
 -4.7101 16.3334 -12.4882 74.4617 15.7289 6.3592 -156.2179 25.0485 -51.1948 114.5352 0.0000 0.0000 -31.0256 20.0832 37.0365 15.0624 0.0000 0.0000 -97.8919 20.0382 42.3147 -6.5892 -0.0000 -0.0000 8.1247 -11.7296 -52.0594 9.5730 -0.0000 0.0000 -28.2467 8.8399 14.4315 -27.7158 13.0262 -20.0699 -3.3500 2.6433 77.5508 6.6419 -0.0000 -12.5885 36.3742 21.5930 -63.4519 32.8623 0.0000 -24.3270 -10.2321 5.3162 47.8715 -31.8296 -17.1979 -36.3059 -12.4391 0.0000 14.0524 -6.9049 17.1638 22.3114 33.1476 -0.0000 26.2537 -0.5599 -46.4391 30.8586
 -4.7214 16.3066 -12.4853 74.5112 15.7121 6.1872 -156.2094 25.0442 -51.3719 114.6568 0.0000 -0.0000 -31.2202 19.5879 38.3241 17.2519 -0.0000 -0.0000 -97.9621 19.8510 42.3715 -6.5910 -0.0000 0.0000 8.1885 -11.6595 -52.1076 9.5678 0.0000 0.0000 -28.1943 8.8269 14.4726 -27.7292 12.8784 -19.9374 -3.3595 1.6688 77.5504 7.2487 -0.0000 -11.5150 36.4329 20.8709 -64.2360 32.8623 0.0000 -24.3270 -10.3500 5.2886 47.9804 -31.8908 -17.3479 -36.2295 -12.2352 0.0000 14.1471 -7.0227 17.2426 22.5670 33.1476 -0.0000 26.2537 -0.6052 -46.4748 30.9727
